<mxfile host="app.diagrams.net" modified="2021-05-15T08:22:03.962Z" agent="5.0 (Windows NT 10.0; Win64; x64) AppleWebKit/537.36 (KHTML, like Gecko) Chrome/86.0.4240.272 Whale/2.9.117.22 Safari/537.36" etag="vysE8oj_dBWZtdz_Msb_" version="14.6.13" type="github">
  <diagram name="Page-3" id="uvg__zSx2y0OaLT1Tk9v">
    <mxGraphModel dx="1372" dy="760" grid="1" gridSize="10" guides="1" tooltips="1" connect="1" arrows="1" fold="1" page="1" pageScale="1" pageWidth="880" pageHeight="560" math="0" shadow="0">
      <root>
        <mxCell id="WRzw2AryrDUaLVQl2wr--0" />
        <mxCell id="WRzw2AryrDUaLVQl2wr--1" parent="WRzw2AryrDUaLVQl2wr--0" />
        <mxCell id="WRzw2AryrDUaLVQl2wr--2" value="LoginPage" style="swimlane;fontStyle=1;align=center;verticalAlign=top;childLayout=stackLayout;horizontal=1;startSize=26;horizontalStack=0;resizeParent=1;resizeParentMax=0;resizeLast=0;collapsible=1;marginBottom=0;" parent="WRzw2AryrDUaLVQl2wr--1" vertex="1">
          <mxGeometry x="80" y="220" width="160" height="94" as="geometry">
            <mxRectangle x="120" y="120" width="100" height="26" as="alternateBounds" />
          </mxGeometry>
        </mxCell>
        <mxCell id="WRzw2AryrDUaLVQl2wr--3" value="- id: String&#xa;- pw: String&#xa;" style="text;strokeColor=none;fillColor=none;align=left;verticalAlign=top;spacingLeft=4;spacingRight=4;overflow=hidden;rotatable=0;points=[[0,0.5],[1,0.5]];portConstraint=eastwest;" parent="WRzw2AryrDUaLVQl2wr--2" vertex="1">
          <mxGeometry y="26" width="160" height="34" as="geometry" />
        </mxCell>
        <mxCell id="WRzw2AryrDUaLVQl2wr--4" value="" style="line;strokeWidth=1;fillColor=none;align=left;verticalAlign=middle;spacingTop=-1;spacingLeft=3;spacingRight=3;rotatable=0;labelPosition=right;points=[];portConstraint=eastwest;" parent="WRzw2AryrDUaLVQl2wr--2" vertex="1">
          <mxGeometry y="60" width="160" height="8" as="geometry" />
        </mxCell>
        <mxCell id="WRzw2AryrDUaLVQl2wr--5" value="+ login(String, String): void" style="text;strokeColor=none;fillColor=none;align=left;verticalAlign=top;spacingLeft=4;spacingRight=4;overflow=hidden;rotatable=0;points=[[0,0.5],[1,0.5]];portConstraint=eastwest;" parent="WRzw2AryrDUaLVQl2wr--2" vertex="1">
          <mxGeometry y="68" width="160" height="26" as="geometry" />
        </mxCell>
        <mxCell id="xXJn-9zFxjQOPmpREbiu-3" style="edgeStyle=orthogonalEdgeStyle;rounded=0;orthogonalLoop=1;jettySize=auto;html=1;exitX=0.5;exitY=0;exitDx=0;exitDy=0;" parent="WRzw2AryrDUaLVQl2wr--1" source="7hHFJZAYF7sp3FDICZ8d-0" target="QKyX5zy9_FlekIF7kzaq-0" edge="1">
          <mxGeometry relative="1" as="geometry" />
        </mxCell>
        <mxCell id="xXJn-9zFxjQOPmpREbiu-6" style="edgeStyle=orthogonalEdgeStyle;rounded=0;orthogonalLoop=1;jettySize=auto;html=1;" parent="WRzw2AryrDUaLVQl2wr--1" source="7hHFJZAYF7sp3FDICZ8d-0" target="k6APN3D7TI_hX1kmKfrp-0" edge="1">
          <mxGeometry relative="1" as="geometry" />
        </mxCell>
        <mxCell id="7hHFJZAYF7sp3FDICZ8d-0" value="Controller" style="swimlane;fontStyle=1;align=center;verticalAlign=top;childLayout=stackLayout;horizontal=1;startSize=26;horizontalStack=0;resizeParent=1;resizeParentMax=0;resizeLast=0;collapsible=1;marginBottom=0;" parent="WRzw2AryrDUaLVQl2wr--1" vertex="1">
          <mxGeometry x="320" y="220" width="200" height="94" as="geometry" />
        </mxCell>
        <mxCell id="7hHFJZAYF7sp3FDICZ8d-1" value="- id: String&#xa;- pw: String&#xa;&#xa;&#xa;" style="text;strokeColor=none;fillColor=none;align=left;verticalAlign=top;spacingLeft=4;spacingRight=4;overflow=hidden;rotatable=0;points=[[0,0.5],[1,0.5]];portConstraint=eastwest;" parent="7hHFJZAYF7sp3FDICZ8d-0" vertex="1">
          <mxGeometry y="26" width="200" height="34" as="geometry" />
        </mxCell>
        <mxCell id="7hHFJZAYF7sp3FDICZ8d-2" value="" style="line;strokeWidth=1;fillColor=none;align=left;verticalAlign=middle;spacingTop=-1;spacingLeft=3;spacingRight=3;rotatable=0;labelPosition=right;points=[];portConstraint=eastwest;" parent="7hHFJZAYF7sp3FDICZ8d-0" vertex="1">
          <mxGeometry y="60" width="200" height="8" as="geometry" />
        </mxCell>
        <mxCell id="7hHFJZAYF7sp3FDICZ8d-3" value="+ enterId(String, String): void" style="text;strokeColor=none;fillColor=none;align=left;verticalAlign=top;spacingLeft=4;spacingRight=4;overflow=hidden;rotatable=0;points=[[0,0.5],[1,0.5]];portConstraint=eastwest;" parent="7hHFJZAYF7sp3FDICZ8d-0" vertex="1">
          <mxGeometry y="68" width="200" height="26" as="geometry" />
        </mxCell>
        <mxCell id="xXJn-9zFxjQOPmpREbiu-4" style="edgeStyle=orthogonalEdgeStyle;rounded=0;orthogonalLoop=1;jettySize=auto;html=1;exitX=1;exitY=0.5;exitDx=0;exitDy=0;" parent="WRzw2AryrDUaLVQl2wr--1" source="QKyX5zy9_FlekIF7kzaq-0" target="QKyX5zy9_FlekIF7kzaq-4" edge="1">
          <mxGeometry relative="1" as="geometry" />
        </mxCell>
        <mxCell id="QKyX5zy9_FlekIF7kzaq-0" value="PasswordChecker" style="swimlane;fontStyle=1;align=center;verticalAlign=top;childLayout=stackLayout;horizontal=1;startSize=26;horizontalStack=0;resizeParent=1;resizeParentMax=0;resizeLast=0;collapsible=1;marginBottom=0;" parent="WRzw2AryrDUaLVQl2wr--1" vertex="1">
          <mxGeometry x="320" y="80" width="200" height="60" as="geometry" />
        </mxCell>
        <mxCell id="QKyX5zy9_FlekIF7kzaq-2" value="" style="line;strokeWidth=1;fillColor=none;align=left;verticalAlign=middle;spacingTop=-1;spacingLeft=3;spacingRight=3;rotatable=0;labelPosition=right;points=[];portConstraint=eastwest;" parent="QKyX5zy9_FlekIF7kzaq-0" vertex="1">
          <mxGeometry y="26" width="200" height="8" as="geometry" />
        </mxCell>
        <mxCell id="QKyX5zy9_FlekIF7kzaq-3" value="+ checkId(String, String): boolean" style="text;strokeColor=none;fillColor=none;align=left;verticalAlign=top;spacingLeft=4;spacingRight=4;overflow=hidden;rotatable=0;points=[[0,0.5],[1,0.5]];portConstraint=eastwest;" parent="QKyX5zy9_FlekIF7kzaq-0" vertex="1">
          <mxGeometry y="34" width="200" height="26" as="geometry" />
        </mxCell>
        <mxCell id="QKyX5zy9_FlekIF7kzaq-4" value="PasswordStorage" style="swimlane;fontStyle=1;align=center;verticalAlign=top;childLayout=stackLayout;horizontal=1;startSize=26;horizontalStack=0;resizeParent=1;resizeParentMax=0;resizeLast=0;collapsible=1;marginBottom=0;" parent="WRzw2AryrDUaLVQl2wr--1" vertex="1">
          <mxGeometry x="600" y="80" width="200" height="60" as="geometry" />
        </mxCell>
        <mxCell id="QKyX5zy9_FlekIF7kzaq-5" value="" style="line;strokeWidth=1;fillColor=none;align=left;verticalAlign=middle;spacingTop=-1;spacingLeft=3;spacingRight=3;rotatable=0;labelPosition=right;points=[];portConstraint=eastwest;" parent="QKyX5zy9_FlekIF7kzaq-4" vertex="1">
          <mxGeometry y="26" width="200" height="8" as="geometry" />
        </mxCell>
        <mxCell id="QKyX5zy9_FlekIF7kzaq-6" value="+ getPassword(String): String" style="text;strokeColor=none;fillColor=none;align=left;verticalAlign=top;spacingLeft=4;spacingRight=4;overflow=hidden;rotatable=0;points=[[0,0.5],[1,0.5]];portConstraint=eastwest;" parent="QKyX5zy9_FlekIF7kzaq-4" vertex="1">
          <mxGeometry y="34" width="200" height="26" as="geometry" />
        </mxCell>
        <mxCell id="k6APN3D7TI_hX1kmKfrp-0" value="UserCredential" style="swimlane;fontStyle=1;align=center;verticalAlign=top;childLayout=stackLayout;horizontal=1;startSize=26;horizontalStack=0;resizeParent=1;resizeParentMax=0;resizeLast=0;collapsible=1;marginBottom=0;" parent="WRzw2AryrDUaLVQl2wr--1" vertex="1">
          <mxGeometry x="340" y="400" width="160" height="60" as="geometry" />
        </mxCell>
        <mxCell id="k6APN3D7TI_hX1kmKfrp-1" value="" style="line;strokeWidth=1;fillColor=none;align=left;verticalAlign=middle;spacingTop=-1;spacingLeft=3;spacingRight=3;rotatable=0;labelPosition=right;points=[];portConstraint=eastwest;" parent="k6APN3D7TI_hX1kmKfrp-0" vertex="1">
          <mxGeometry y="26" width="160" height="8" as="geometry" />
        </mxCell>
        <mxCell id="k6APN3D7TI_hX1kmKfrp-2" value="+ signIn(String): void" style="text;strokeColor=none;fillColor=none;align=left;verticalAlign=top;spacingLeft=4;spacingRight=4;overflow=hidden;rotatable=0;points=[[0,0.5],[1,0.5]];portConstraint=eastwest;" parent="k6APN3D7TI_hX1kmKfrp-0" vertex="1">
          <mxGeometry y="34" width="160" height="26" as="geometry" />
        </mxCell>
        <mxCell id="xXJn-9zFxjQOPmpREbiu-2" style="edgeStyle=orthogonalEdgeStyle;rounded=0;orthogonalLoop=1;jettySize=auto;html=1;exitX=1;exitY=0.5;exitDx=0;exitDy=0;entryX=0;entryY=0.5;entryDx=0;entryDy=0;" parent="WRzw2AryrDUaLVQl2wr--1" source="WRzw2AryrDUaLVQl2wr--3" target="7hHFJZAYF7sp3FDICZ8d-1" edge="1">
          <mxGeometry relative="1" as="geometry" />
        </mxCell>
        <mxCell id="xXJn-9zFxjQOPmpREbiu-10" value="PasswordPair" style="swimlane;fontStyle=1;align=center;verticalAlign=top;childLayout=stackLayout;horizontal=1;startSize=26;horizontalStack=0;resizeParent=1;resizeParentMax=0;resizeLast=0;collapsible=1;marginBottom=0;" parent="WRzw2AryrDUaLVQl2wr--1" vertex="1">
          <mxGeometry x="620" y="220" width="160" height="110" as="geometry" />
        </mxCell>
        <mxCell id="xXJn-9zFxjQOPmpREbiu-11" value="- id: String&#xa;- pw: String&#xa;" style="text;strokeColor=none;fillColor=none;align=left;verticalAlign=top;spacingLeft=4;spacingRight=4;overflow=hidden;rotatable=0;points=[[0,0.5],[1,0.5]];portConstraint=eastwest;" parent="xXJn-9zFxjQOPmpREbiu-10" vertex="1">
          <mxGeometry y="26" width="160" height="34" as="geometry" />
        </mxCell>
        <mxCell id="xXJn-9zFxjQOPmpREbiu-12" value="" style="line;strokeWidth=1;fillColor=none;align=left;verticalAlign=middle;spacingTop=-1;spacingLeft=3;spacingRight=3;rotatable=0;labelPosition=right;points=[];portConstraint=eastwest;" parent="xXJn-9zFxjQOPmpREbiu-10" vertex="1">
          <mxGeometry y="60" width="160" height="8" as="geometry" />
        </mxCell>
        <mxCell id="xXJn-9zFxjQOPmpREbiu-13" value="+ getId(): String&#xa;+ getPassword(): String&#xa;" style="text;strokeColor=none;fillColor=none;align=left;verticalAlign=top;spacingLeft=4;spacingRight=4;overflow=hidden;rotatable=0;points=[[0,0.5],[1,0.5]];portConstraint=eastwest;" parent="xXJn-9zFxjQOPmpREbiu-10" vertex="1">
          <mxGeometry y="68" width="160" height="42" as="geometry" />
        </mxCell>
        <mxCell id="xXJn-9zFxjQOPmpREbiu-15" value="0..*" style="endArrow=open;html=1;endSize=12;startArrow=diamondThin;startSize=14;startFill=0;edgeStyle=orthogonalEdgeStyle;align=left;verticalAlign=bottom;" parent="WRzw2AryrDUaLVQl2wr--1" source="QKyX5zy9_FlekIF7kzaq-4" target="xXJn-9zFxjQOPmpREbiu-10" edge="1">
          <mxGeometry x="-0.5" y="10" relative="1" as="geometry">
            <mxPoint x="570" y="290" as="sourcePoint" />
            <mxPoint x="730" y="290" as="targetPoint" />
            <mxPoint as="offset" />
          </mxGeometry>
        </mxCell>
      </root>
    </mxGraphModel>
  </diagram>
</mxfile>
